<svg width="60" height="61" viewBox="0 0 60 61" fill="none" xmlns="http://www.w3.org/2000/svg">
<path d="M31.421 3.5H7C5.34315 3.5 4 4.84315 4 6.5V54.1841C4 55.841 5.34315 57.1841 7 57.1841H31.421C33.0779 57.1841 34.421 55.841 34.421 54.1841V6.5C34.421 4.84315 33.0779 3.5 31.421 3.5Z" fill="#D9D9D9"/>
<path fill-rule="evenodd" clip-rule="evenodd" d="M20.3159 14.2368C19.2113 14.2368 18.3159 15.1322 18.3159 16.2368V34.6052C18.3159 35.7098 19.2113 36.6052 20.3159 36.6052H46.3773C46.4142 36.6553 46.4567 36.7031 46.5048 36.748L53.3184 43.0923C53.9579 43.6878 54.9999 43.2342 54.9999 42.3604V34.6331C55 34.6238 55.0001 34.6145 55.0001 34.6052V16.2368C55.0001 15.1322 54.1046 14.2368 53.0001 14.2368H20.3159Z" fill="#A7D2C1"/>
<path d="M18.3159 16.2368C18.3159 15.1322 19.2113 14.2368 20.3159 14.2368H34.4212V36.6052H20.3159C19.2113 36.6052 18.3159 35.7098 18.3159 34.6052V16.2368Z" fill="black"/>
</svg>
