<svg width="60" height="60" viewBox="0 0 60 60" fill="none" xmlns="http://www.w3.org/2000/svg">
<path fill-rule="evenodd" clip-rule="evenodd" d="M4.50746 20.209C3.12263 20.209 2 21.3316 2 22.7164V43.4488V46.1194V54.1314C2 54.876 2.9003 55.249 3.42684 54.7224L9.52236 48.6269H43.791C45.1759 48.6269 46.2985 47.5043 46.2985 46.1194V22.7164C46.2985 21.3316 45.1759 20.209 43.791 20.209H4.50746Z" fill="#A7D2C1"/>
<path fill-rule="evenodd" clip-rule="evenodd" d="M16.2091 6C14.8243 6 13.7017 7.12263 13.7017 8.50746V31.9104C13.7017 33.2953 14.8243 34.4179 16.2091 34.4179H50.06L56.5734 40.9314C57.1 41.4579 58.0003 41.085 58.0003 40.3404V29.6578C58.0003 29.6539 58.0002 29.6501 58.0002 29.6463V8.50746C58.0002 7.12263 56.8776 6 55.4927 6H16.2091Z" fill="#D9D9D9"/>
<path d="M13.7017 20.209H43.7912C45.1761 20.209 46.2987 21.3316 46.2987 22.7164V34.4179H16.2091C14.8243 34.4179 13.7017 33.2953 13.7017 31.9105V20.209Z" fill="black"/>
</svg>
