<svg width="60" height="61" viewBox="0 0 60 61" fill="none" xmlns="http://www.w3.org/2000/svg">
<path d="M53.1304 7.5H6.86957C4.18018 7.5 2 9.68018 2 12.3696C2 15.059 4.18018 17.2391 6.86957 17.2391H53.1304C55.8198 17.2391 58 15.059 58 12.3696C58 9.68018 55.8198 7.5 53.1304 7.5Z" fill="#D9D9D9"/>
<path d="M41.7681 7.5H6.86957C4.18018 7.5 2 9.68018 2 12.3696C2 15.059 4.18018 17.2391 6.86957 17.2391H41.7681C44.4575 17.2391 46.6377 15.059 46.6377 12.3696C46.6377 9.68018 44.4575 7.5 41.7681 7.5Z" fill="#A7D2C1"/>
<path d="M46.6381 12.3696C46.6381 9.68018 44.4579 7.5 41.7685 7.5C39.0791 7.5 36.8989 9.68018 36.8989 12.3696C36.8989 15.059 39.0791 17.2391 41.7685 17.2391C44.4579 17.2391 46.6381 15.059 46.6381 12.3696Z" fill="black"/>
<path d="M53.1304 43.2102H6.86957C4.18018 43.2102 2 45.3904 2 48.0798C2 50.7692 4.18018 52.9493 6.86957 52.9493H53.1304C55.8198 52.9493 58 50.7692 58 48.0798C58 45.3904 55.8198 43.2102 53.1304 43.2102Z" fill="#D9D9D9"/>
<path d="M27.1594 43.2102H6.86957C4.18018 43.2102 2 45.3904 2 48.0798C2 50.7692 4.18018 52.9493 6.86957 52.9493H27.1594C29.8488 52.9493 32.029 50.7692 32.029 48.0798C32.029 45.3904 29.8488 43.2102 27.1594 43.2102Z" fill="#A7D2C1"/>
<path d="M32.0292 48.0798C32.0292 45.3904 29.849 43.2102 27.1596 43.2102C24.4702 43.2102 22.29 45.3904 22.29 48.0798C22.29 50.7692 24.4702 52.9493 27.1596 52.9493C29.849 52.9493 32.0292 50.7692 32.0292 48.0798Z" fill="black"/>
<path d="M53.1304 25.355H6.86957C4.18018 25.355 2 27.5352 2 30.2245C2 32.9139 4.18018 35.0941 6.86957 35.0941H53.1304C55.8198 35.0941 58 32.9139 58 30.2245C58 27.5352 55.8198 25.355 53.1304 25.355Z" fill="#D9D9D9"/>
<path d="M35.2753 25.355H6.86957C4.18018 25.355 2 27.5352 2 30.2245C2 32.9139 4.18018 35.0941 6.86957 35.0941H35.2753C37.9647 35.0941 40.1449 32.9139 40.1449 30.2245C40.1449 27.5352 37.9647 25.355 35.2753 25.355Z" fill="#A7D2C1"/>
<path d="M40.1449 30.2245C40.1449 27.5352 37.9647 25.355 35.2753 25.355C32.5859 25.355 30.4058 27.5352 30.4058 30.2245C30.4058 32.9139 32.5859 35.0941 35.2753 35.0941C37.9647 35.0941 40.1449 32.9139 40.1449 30.2245Z" fill="black"/>
</svg>
