<svg width="33" height="32" viewBox="0 0 33 32" fill="none" xmlns="http://www.w3.org/2000/svg">
<path fill-rule="evenodd" clip-rule="evenodd" d="M16.3 8C14.1277 8 13.8551 8.00923 13.0016 8.048C12.1499 8.08677 11.5684 8.22215 11.0594 8.41969C10.5257 8.62071 10.0423 8.93572 9.64282 9.34277C9.23569 9.74241 8.92068 10.2261 8.71974 10.76C8.5222 11.2683 8.38743 11.8498 8.34805 12.7015C8.30928 13.5551 8.30005 13.8277 8.30005 16C8.30005 18.1723 8.30928 18.4449 8.34805 19.2985C8.38682 20.1502 8.5222 20.7317 8.71974 21.24C8.92466 21.7662 9.1979 22.2123 9.64282 22.6572C10.0423 23.0643 10.5257 23.3793 11.0594 23.5803C11.5684 23.7772 12.1499 23.9126 13.0016 23.952C13.8551 23.9908 14.1277 24 16.3 24C18.4724 24 18.745 23.9908 19.5985 23.952C20.4502 23.9132 21.0317 23.7778 21.54 23.5803C22.074 23.3794 22.5577 23.0644 22.9573 22.6572C23.3644 22.2576 23.6794 21.7739 23.8804 21.24C24.0773 20.7317 24.2127 20.1502 24.2521 19.2985C24.2908 18.4449 24.3 18.1723 24.3 16C24.3 13.8277 24.2908 13.5551 24.2521 12.7015C24.2133 11.8498 24.0779 11.2683 23.8797 10.76C23.679 10.2261 23.3642 9.74247 22.9573 9.34277C22.5577 8.93563 22.074 8.62061 21.54 8.41969C21.0317 8.22277 20.4502 8.08738 19.5985 8.048C18.745 8.00923 18.4724 8 16.3 8ZM16.3 9.44123C18.436 9.44123 18.689 9.44985 19.5327 9.488C20.3124 9.52369 20.7364 9.65415 21.0182 9.76369C21.3917 9.90892 21.6582 10.0818 21.9382 10.3618C22.2182 10.6418 22.3911 10.9083 22.5364 11.2818C22.6459 11.5637 22.7764 11.9871 22.812 12.7674C22.8502 13.6105 22.8588 13.864 22.8588 16C22.8588 18.136 22.8502 18.3889 22.812 19.2326C22.7764 20.0129 22.6459 20.4363 22.5364 20.7182C22.4082 21.0657 22.2038 21.38 21.9382 21.6382C21.6801 21.9038 21.3657 22.1082 21.0182 22.2363C20.7364 22.3458 20.3124 22.4763 19.5327 22.512C18.6896 22.5502 18.436 22.5588 16.3 22.5588C14.164 22.5588 13.9105 22.5502 13.0674 22.512C12.2871 22.4763 11.8637 22.3458 11.5819 22.2363C11.2344 22.1082 10.92 21.9038 10.6619 21.6382C10.3963 21.38 10.1919 21.0656 10.0637 20.7182C9.9542 20.4363 9.82374 20.0129 9.78805 19.2326C9.7499 18.3895 9.74128 18.136 9.74128 16C9.74128 13.864 9.7499 13.6111 9.78805 12.7674C9.82374 11.9871 9.9542 11.5637 10.0637 11.2818C10.209 10.9083 10.3819 10.6418 10.6619 10.3618C10.92 10.0962 11.2344 9.89184 11.5819 9.76369C11.8637 9.65415 12.2871 9.52369 13.0674 9.488C13.9105 9.44985 14.164 9.44123 16.3 9.44123Z" fill="#137866"/>
<path fill-rule="evenodd" clip-rule="evenodd" d="M16.3001 11.6924C15.1577 11.6924 14.062 12.1462 13.2541 12.9541C12.4463 13.7619 11.9924 14.8576 11.9924 16.0001C11.9924 17.1425 12.4463 18.2382 13.2541 19.0461C14.062 19.8539 15.1577 20.3077 16.3001 20.3077C17.4426 20.3077 18.5383 19.8539 19.3461 19.0461C20.154 18.2382 20.6078 17.1425 20.6078 16.0001C20.6078 14.8576 20.154 13.7619 19.3461 12.9541C18.5383 12.1462 17.4426 11.6924 16.3001 11.6924ZM16.3001 18.7693C15.5657 18.7693 14.8613 18.4775 14.342 17.9582C13.8227 17.4389 13.5309 16.7345 13.5309 16.0001C13.5309 15.2656 13.8227 14.5612 14.342 14.0419C14.8613 13.5226 15.5657 13.2308 16.3001 13.2308C17.0346 13.2308 17.7389 13.5226 18.2583 14.0419C18.7776 14.5612 19.0694 15.2656 19.0694 16.0001C19.0694 16.7345 18.7776 17.4389 18.2583 17.9582C17.7389 18.4775 17.0346 18.7693 16.3001 18.7693ZM21.654 11.7539C21.654 11.8832 21.6285 12.0112 21.579 12.1307C21.5295 12.2502 21.457 12.3587 21.3656 12.4501C21.2742 12.5416 21.1656 12.6141 21.0462 12.6636C20.9267 12.7131 20.7987 12.7385 20.6694 12.7385C20.5401 12.7385 20.412 12.7131 20.2926 12.6636C20.1731 12.6141 20.0646 12.5416 19.9731 12.4501C19.8817 12.3587 19.8092 12.2502 19.7597 12.1307C19.7102 12.0112 19.6847 11.8832 19.6847 11.7539C19.6847 11.4928 19.7885 11.2423 19.9731 11.0577C20.1578 10.873 20.4082 10.7693 20.6694 10.7693C20.9305 10.7693 21.1809 10.873 21.3656 11.0577C21.5502 11.2423 21.654 11.4928 21.654 11.7539Z" fill="#137866"/>
<rect x="0.800049" y="0.5" width="31" height="31" rx="15.5" stroke="#137866"/>
</svg>
