<svg width="32" height="31" viewBox="0 0 32 31" fill="none" xmlns="http://www.w3.org/2000/svg">
<path d="M11.448 9.66741C11.4478 10.1094 11.2818 10.5332 10.9864 10.8456C10.6911 11.158 10.2907 11.3334 9.87324 11.3331C9.45579 11.3329 9.05553 11.1571 8.7605 10.8444C8.46547 10.5317 8.29984 10.1077 8.30005 9.66574C8.30026 9.22374 8.46629 8.79993 8.76161 8.48754C9.05694 8.17515 9.45737 7.99978 9.87481 8C10.2923 8.00022 10.6925 8.17602 10.9876 8.48872C11.2826 8.80142 11.4482 9.2254 11.448 9.66741ZM11.4952 12.5672H8.34727V23H11.4952V12.5672ZM16.469 12.5672H13.3368V23H16.4375V17.5253C16.4375 14.4755 20.1914 14.1922 20.1914 17.5253V23H23.3V16.392C23.3 11.2507 17.7439 11.4423 16.4375 13.9672L16.469 12.5672Z" fill="#137866"/>
<rect x="0.800049" y="0.5" width="30" height="30" rx="15" stroke="#137866"/>
</svg>
