<svg width="32" height="31" viewBox="0 0 32 31" fill="none" xmlns="http://www.w3.org/2000/svg">
<path d="M13.0169 23C18.6775 23 21.7732 17.2288 21.7732 12.2237C21.7732 12.0599 21.7732 11.8968 21.7644 11.7345C22.3669 11.1982 22.8869 10.534 23.3 9.77313C22.7385 10.0798 22.1427 10.281 21.5325 10.37C22.1748 9.89643 22.6555 9.15184 22.8851 8.27476C22.2811 8.71584 21.6203 9.02671 20.9313 9.19394C20.4673 8.5867 19.8536 8.1846 19.1851 8.04986C18.5167 7.91512 17.8308 8.05525 17.2336 8.44857C16.6364 8.84189 16.1612 9.46646 15.8815 10.2257C15.6018 10.9848 15.5332 11.8363 15.6863 12.6483C14.4628 12.5729 13.2659 12.1816 12.1732 11.5C11.0805 10.8183 10.1165 9.86151 9.3438 8.69166C8.95036 9.5255 8.82991 10.5125 9.00699 11.4518C9.18406 12.3911 9.64534 13.212 10.2969 13.7475C9.80711 13.7295 9.328 13.5667 8.90005 13.2729V13.3214C8.90024 14.1958 9.14617 15.0432 9.59613 15.7199C10.0461 16.3966 10.6724 16.861 11.3688 17.0342C10.9158 17.1861 10.4405 17.2082 9.97942 17.0988C10.176 17.8514 10.5589 18.5095 11.0744 18.9812C11.5898 19.4529 12.2122 19.7145 12.8544 19.7294C12.2163 20.3465 11.4856 20.8026 10.7041 21.0719C9.92266 21.3411 9.10573 21.4182 8.30005 21.2986C9.70727 22.4103 11.3447 23.0001 13.0169 22.9977" fill="#137866"/>
<rect x="0.800049" y="0.5" width="30" height="30" rx="15" stroke="#137866"/>
</svg>
